<?xml version="1.0" encoding="utf-8"?>
<!-- Generator: Adobe Illustrator 26.3.1, SVG Export Plug-In . SVG Version: 6.00 Build 0)  -->
<svg version="1.1" id="Layer_1" xmlns="http://www.w3.org/2000/svg" xmlns:xlink="http://www.w3.org/1999/xlink" x="0px" y="0px"
	 viewBox="0 0 24 24" style="enable-background:new 0 0 24 24;" xml:space="preserve">
<style type="text/css">
	.st0{fill:#FFFFFF;}
	.st1{fill:#A3A3A3;}
</style>
<rect class="st0" width="24" height="24"/>
<g transform="translate(6 6)">
	<path class="st1" d="M11.8,0.8l-0.6-0.6C11,0,10.6,0,10.3,0.2L6,4.5L1.7,0.2C1.4-0.1,1-0.1,0.8,0.2L0.2,0.8C0,1,0,1.4,0.2,1.7
		L4.5,6l-4.3,4.3c-0.2,0.2-0.2,0.6,0,0.9l0.6,0.6C1,12,1.4,12,1.7,11.8L6,7.5l4.3,4.3c0.2,0.2,0.6,0.2,0.9,0l0.6-0.6
		c0.2-0.2,0.2-0.6,0-0.9L7.5,6l4.3-4.3C12.1,1.4,12.1,1,11.8,0.8L11.8,0.8z"/>
</g>
</svg>
